<svg width="121" height="42" viewBox="0 0 121 42" fill="none" xmlns="http://www.w3.org/2000/svg">
<path d="M99.44 0.23999C94.48 0.23999 89.93 1.97999 86.36 4.87999C82.79 1.97999 78.24 0.23999 73.28 0.23999C68.32 0.23999 63.77 1.97999 60.2 4.87999C56.63 1.97999 52.08 0.23999 47.12 0.23999C42.16 0.23999 37.61 1.97999 34.04 4.87999C30.47 1.97999 25.92 0.23999 20.96 0.23999C9.49501 0.23999 0.200012 9.53499 0.200012 21C0.200012 32.465 9.49501 41.76 20.96 41.76C25.92 41.76 30.47 40.02 34.04 37.12C37.61 40.02 42.16 41.76 47.12 41.76C52.08 41.76 56.63 40.02 60.2 37.12C63.77 40.02 68.32 41.76 73.28 41.76C78.24 41.76 82.79 40.02 86.36 37.12C89.93 40.02 94.48 41.76 99.44 41.76C110.905 41.76 120.2 32.465 120.2 21C120.2 9.53499 110.905 0.23999 99.44 0.23999ZM86.36 30.33C84.48 27.7 83.37 24.48 83.37 21C83.37 17.52 84.48 14.3 86.36 11.67C88.24 14.3 89.35 17.52 89.35 21C89.35 24.48 88.24 27.7 86.36 30.33ZM60.2 30.33C58.32 27.7 57.21 24.48 57.21 21C57.21 17.52 58.32 14.3 60.2 11.67C62.08 14.3 63.19 17.52 63.19 21C63.19 24.48 62.08 27.7 60.2 30.33ZM34.04 30.33C32.16 27.7 31.05 24.48 31.05 21C31.05 17.52 32.16 14.3 34.04 11.67C35.92 14.3 37.03 17.52 37.03 21C37.03 24.48 35.92 27.7 34.04 30.33ZM4.89001 21C4.89001 12.125 12.085 4.92999 20.96 4.92999C24.64 4.92999 28.03 6.16999 30.74 8.25499C28 11.77 26.36 16.195 26.36 21C26.36 25.805 28 30.23 30.74 33.745C28.03 35.825 24.64 37.07 20.96 37.07C12.085 37.07 4.89001 29.875 4.89001 21ZM37.34 33.745C40.08 30.23 41.72 25.805 41.72 21C41.72 16.195 40.08 11.77 37.34 8.25499C40.05 6.17499 43.44 4.92999 47.12 4.92999C50.8 4.92999 54.19 6.16999 56.9 8.25499C54.155 11.775 52.52 16.195 52.52 21C52.52 25.805 54.16 30.23 56.9 33.745C54.19 35.825 50.8 37.07 47.12 37.07C43.44 37.07 40.05 35.83 37.34 33.745ZM63.5 33.745C66.245 30.225 67.88 25.805 67.88 21C67.88 16.195 66.24 11.77 63.5 8.24999C66.21 6.16999 69.6 4.92499 73.28 4.92499C76.96 4.92499 80.35 6.16499 83.06 8.24999C80.315 11.77 78.68 16.19 78.68 20.995C78.68 25.8 80.32 30.225 83.06 33.74C80.35 35.82 76.96 37.065 73.28 37.065C69.6 37.07 66.21 35.83 63.5 33.745ZM99.44 37.07C95.76 37.07 92.37 35.83 89.66 33.745C92.4 30.225 94.04 25.805 94.04 21C94.04 16.195 92.4 11.77 89.66 8.25499C92.37 6.17499 95.76 4.92999 99.44 4.92999C108.315 4.92999 115.51 12.125 115.51 21C115.51 29.875 108.315 37.07 99.44 37.07Z" fill="black"/>
</svg>
