<svg width="128" height="80" viewBox="0 0 128 80" fill="none" xmlns="http://www.w3.org/2000/svg">
<g clip-path="url(#clip0_443_509)">
<path d="M82.1305 73.5254H86.8932V74.622H82.1305V73.5254ZM2.91072 66.8746L2.485 77.8812V78.0723C2.485 79.0041 2.76092 79.1963 4.25451 79.3015V79.8114C3.16736 79.7282 2.73944 79.7068 2.14355 79.7068C1.546 79.7068 1.11974 79.7282 0.0111084 79.8114V79.3015C1.50305 79.1963 1.71728 79.026 1.75969 77.8812L2.20743 67.4695V67.344C2.20743 66.3668 1.90839 66.1554 0.438478 66.071V65.5397C1.26843 65.6038 1.58841 65.6252 2.18596 65.6252C2.86285 65.6313 3.53949 65.5963 4.2121 65.5206L8.17629 76.2489L12.2049 65.5206C13.1659 65.6038 13.6131 65.6252 14.2531 65.6252C14.784 65.6252 15.1265 65.6038 15.9361 65.5397V66.071C14.4871 66.1554 14.1655 66.3668 14.1655 67.321V67.4695L14.4007 77.8812C14.4238 79.026 14.6144 79.1947 16.1498 79.3015V79.8114C14.8071 79.6844 14.2944 79.6406 13.4848 79.6406C12.6736 79.6406 12.1619 79.6822 10.8193 79.8114V79.3015C12.2682 79.2177 12.5882 78.9832 12.5882 77.9885V77.8839L12.3982 66.8987L8.87902 76.3551L8.62403 77.0557L8.32554 77.839L8.04686 78.6475L7.8128 79.3464H7.49283L7.25931 78.6683L6.95971 77.839L6.66177 77.013L6.40568 76.2713L2.91072 66.8746ZM18.9189 73.7237C19.1326 71.2857 19.9416 70.0362 21.3063 70.0362C22.6925 70.0362 23.3958 71.2232 23.523 73.7237H18.9189ZM21.6913 79.279C19.7511 79.279 18.8969 77.7946 18.8776 74.4867H25.2309C25.1873 71.2216 23.8441 69.4824 21.3278 69.4824C18.7713 69.4824 17.1714 71.5398 17.1714 74.8055C17.1714 78.0707 18.7719 79.9785 21.5206 79.9785C23.61 79.9785 24.9753 78.6842 25.2507 76.5008H24.397C24.1415 78.3029 23.2036 79.279 21.6913 79.279ZM26.4992 70.2668V69.8861C27.7136 69.7804 28.4394 69.6534 29.3129 69.3981C29.4197 70.1836 29.4621 70.5215 29.5045 71.1586V71.3925C29.9749 70.1836 30.8896 69.483 31.9994 69.483C33.0645 69.483 33.8542 70.1836 33.8542 71.2024C33.8542 71.8175 33.4919 72.2196 32.9588 72.2196C32.4686 72.2196 32.0853 71.9221 32.0853 71.4993C32.0853 71.4571 32.1073 71.3738 32.1266 71.2857L32.169 71.0748V70.882C32.169 70.5851 31.9129 70.3736 31.529 70.3736C30.4221 70.3736 29.7188 71.7091 29.7188 73.8086V78.2394C29.7188 79.153 29.9308 79.3223 31.2322 79.3853V79.8098C30.058 79.7052 29.6108 79.6816 28.8646 79.6816C28.0974 79.6816 27.6502 79.7052 26.4783 79.8098V79.3853C27.7774 79.3223 28.0121 79.153 28.0121 78.2394V71.3081C27.9917 70.3956 27.8837 70.2909 26.7768 70.2685L26.4992 70.2668ZM42.0101 69.2935V72.7931H41.5397C41.1559 70.9466 40.3678 70.0565 39.068 70.0565C37.4676 70.0565 36.5308 71.7754 36.5308 74.8072C36.5308 77.7749 37.3619 79.2807 39.0031 79.2807C40.3248 79.2807 41.1135 78.3484 41.3696 76.4833H42.243C41.9655 78.7526 40.7505 79.9818 38.8329 79.9818C36.3595 79.9818 34.6765 77.9031 34.6765 74.8088C34.6765 71.6477 36.381 69.4857 38.8968 69.4857C39.8137 69.4857 40.3893 69.7196 41.0727 70.3769L41.6466 69.2951H42.0106L42.0101 69.2935ZM45.5105 73.7237C45.7237 71.2857 46.5327 70.0362 47.898 70.0362C49.2836 70.0362 49.9869 71.2232 50.1136 73.7237H45.5105ZM48.2818 79.279C46.3416 79.279 45.4896 77.7946 45.4681 74.4867H51.8203C51.7779 71.2216 50.4335 69.4824 47.92 69.4824C45.3602 69.4824 43.7608 71.5398 43.7608 74.8055C43.7608 78.0707 45.3596 79.9785 48.1116 79.9785C50.2006 79.9785 51.5653 78.6842 51.8412 76.5008H50.9887C50.7331 78.3029 49.7952 79.279 48.2818 79.279ZM57.7241 79.4078C56.1892 79.4078 55.3797 77.816 55.3797 74.7858C55.3797 71.7129 56.1254 70.2066 57.6608 70.2066C59.2392 70.2066 60.0493 71.8175 60.0493 74.9364C60.0488 77.8806 59.2596 79.4078 57.7241 79.4078ZM61.7318 77.604V65.3628C60.6662 65.6465 59.7079 65.8147 58.5145 65.9418V66.3033C59.8571 66.3033 60.0279 66.4517 60.0279 67.5538V71.2637C59.2392 69.9924 58.6207 69.6095 57.4692 69.6095C55.1886 69.6095 53.5887 71.7507 53.5887 74.8039C53.5887 77.8576 55.2078 79.9971 57.533 79.9971C58.748 79.9971 59.5796 79.4461 60.176 78.2597C60.2608 79.0654 60.2608 79.1498 60.4751 79.9544C61.348 79.6783 61.7115 79.594 62.9693 79.4461L63.2888 79.4045V79.044C61.8601 79.0019 61.7318 78.8972 61.7318 77.604ZM65.8453 73.7237C66.0584 71.2857 66.868 70.0362 68.2332 70.0362C69.6189 70.0362 70.3211 71.2232 70.4488 73.7237H65.8453ZM68.6171 79.279C66.6758 79.279 65.8249 77.7946 65.8023 74.4867H72.155C72.1121 71.2216 70.7694 69.4824 68.2547 69.4824C65.6949 69.4824 64.0967 71.5398 64.0967 74.8055C64.0967 78.0707 65.6949 79.9785 68.4464 79.9785C70.5353 79.9785 71.8995 78.6842 72.1754 76.5008H71.3223C71.0684 78.3029 70.1289 79.279 68.6171 79.279ZM73.9653 80.0004V76.4581L74.4345 76.4378C74.8173 78.3681 75.7133 79.3015 77.2063 79.3015C78.4626 79.3015 79.4016 78.4738 79.4016 77.3948C79.4016 76.6739 78.9973 76.187 77.9509 75.7192L77.1414 75.3577L76.161 74.9129C74.603 74.1926 74.1134 73.5983 74.1134 72.368C74.1134 70.6924 75.4341 69.5493 77.3115 69.5493C78.1431 69.5493 78.7627 69.7399 79.4864 70.2252L79.8477 69.3565H80.2315V72.643H79.7403C79.547 70.946 78.8448 70.1419 77.5026 70.1419C76.3731 70.1419 75.4969 70.9055 75.4969 71.9019C75.4969 72.7493 75.8168 73.0264 77.7571 73.8738L78.6531 74.2567C80.2717 74.954 80.8494 75.6343 80.8494 76.8859C80.8494 78.6672 79.4203 79.9374 77.4184 79.9374C76.437 79.9374 75.6693 79.6827 74.8597 79.0473L74.3458 80.0004H73.9653ZM92.7056 72.6846C93.8346 72.6846 94.4741 72.8763 94.9653 73.3627C95.456 73.8524 95.7341 74.7633 95.7341 75.7794C95.7341 77.8998 94.6668 79.0884 92.7701 79.0884H92.0029C90.8722 79.0884 90.6811 78.9175 90.6811 77.9847V72.683L92.7056 72.6846ZM90.6795 66.2595H92.492C94.2829 66.2595 95.071 67.1304 95.071 69.1012C95.071 70.0762 94.837 70.7773 94.3683 71.3267C93.8991 71.8586 93.3241 72.0262 92.1312 72.0262H90.6811V66.2589H90.6795V66.2595ZM96.9678 69.0585C96.9678 67.9559 96.4996 66.982 95.689 66.3652C94.9653 65.8355 94.1348 65.6033 92.7469 65.6033H87.1405V66.1329C88.6765 66.2184 88.8885 66.3876 88.8885 67.5324V77.8154C88.8885 78.9608 88.7167 79.1076 87.1405 79.2369V79.7468H92.5338C94.1106 79.7468 94.9648 79.5545 95.8608 79.0035C96.9259 78.3254 97.6292 77.0316 97.6292 75.6984C97.6292 74.5508 97.1385 73.5128 96.3074 72.8791C95.8608 72.54 95.391 72.3467 94.6227 72.1999C96.1593 71.6247 96.9678 70.5429 96.9678 69.0585ZM101.109 73.7237C101.324 71.2857 102.133 70.0362 103.498 70.0362C104.883 70.0362 105.587 71.2232 105.714 73.7237H101.109ZM103.882 79.279C101.942 79.279 101.088 77.7946 101.067 74.4867H107.421C107.378 71.2216 106.035 69.4824 103.519 69.4824C100.961 69.4824 99.3613 71.5398 99.3613 74.8055C99.3613 78.0707 100.961 79.9785 103.71 79.9785C105.799 79.9785 107.164 78.6842 107.441 76.5008H106.587C106.334 78.3029 105.396 79.279 103.882 79.279ZM108.549 70.3512V69.9924C109.786 69.8215 110.51 69.6534 111.362 69.3559C111.47 69.8456 111.534 70.395 111.575 71.2008C112.344 70.0549 113.217 69.5476 114.454 69.5476C115.734 69.5476 116.841 70.2022 117.269 71.2424C117.483 71.7523 117.589 72.345 117.589 73.1497V78.2388C117.589 79.1514 117.803 79.3207 119.102 79.3836V79.8082C117.972 79.7014 117.546 79.6811 116.779 79.6811C115.988 79.6811 115.563 79.7014 114.454 79.8082V79.3836C115.605 79.3431 115.882 79.13 115.882 78.2821V73.0867C115.882 71.2424 115.328 70.4991 113.965 70.4991C112.513 70.4991 111.747 71.4122 111.747 73.1497V78.2821C111.747 79.13 112.025 79.3431 113.135 79.3836V79.8082C112.025 79.7014 111.6 79.6811 110.831 79.6811C110.085 79.6811 109.636 79.7014 108.528 79.8082V79.3836C109.827 79.3207 110.042 79.1514 110.042 78.2388V71.3706C110.02 70.4991 109.892 70.3736 108.827 70.3736C108.761 70.3736 108.656 70.3512 108.549 70.3512ZM119.93 79.7468L125.707 70.2893H123.085C121.7 70.2893 121.357 70.5851 120.59 72.494H120.166L120.656 69.7377H127.99L122.191 79.1947H124.684C126.135 79.1947 126.731 78.6234 127.371 76.6925H127.819L127.265 79.7468H119.93Z" fill="black"/>
<path d="M90.0814 45.8048C92.9216 41.1074 94.4185 35.7278 94.4107 30.2464C94.4107 13.5416 80.7944 0 63.9992 0C47.2035 0 33.5882 13.5421 33.5882 30.2464C33.5804 35.728 35.0777 41.1076 37.9186 45.8048L37.8079 45.893L37.9401 45.8421C43.263 54.6204 52.941 60.4928 63.9992 60.4928C75.0579 60.4928 84.7349 54.6204 90.0571 45.8421L90.1893 45.893L90.0814 45.8048ZM90.6745 30.2464C90.6797 34.8784 89.4588 39.4301 87.1344 43.444L68.3213 28.3736L64.4629 3.72911C78.9797 3.9756 90.6745 15.749 90.6745 30.2464ZM37.3272 30.2464C37.3272 15.7496 49.0209 3.97614 63.5377 3.72911L59.6792 28.3736L40.8662 43.444C38.5426 39.4299 37.322 34.8783 37.3272 30.2464ZM64.0003 56.7752C54.5354 56.7752 46.2276 51.8674 41.4935 44.4754L64.0003 35.8154L86.5071 44.476C81.7725 51.8674 73.4663 56.7752 64.0003 56.7752Z" fill="black"/>
</g>
<defs>
<clipPath id="clip0_443_509">
<rect width="128" height="80" fill="white"/>
</clipPath>
</defs>
</svg>
