<svg width="80" height="80" viewBox="0 0 80 80" fill="none" xmlns="http://www.w3.org/2000/svg">
<path fill-rule="evenodd" clip-rule="evenodd" d="M40.0166 -4.57764e-05C62.0405 -4.57764e-05 80 17.9595 80 40.0164C80 62.0073 62.0405 80 40.0166 80C17.9927 80 0 62.0073 0 40.0164C0 17.9595 17.9927 -4.57764e-05 40.0166 -4.57764e-05Z" fill="black"/>
<path fill-rule="evenodd" clip-rule="evenodd" d="M40.0166 5.07983C59.2218 5.07983 74.9202 20.7782 74.9202 40.0164C74.9202 59.2217 59.2218 74.8872 40.0166 74.8872C20.8113 74.8872 5.11279 59.2217 5.11279 40.0164C5.11279 20.7782 20.8113 5.07983 40.0166 5.07983ZM16.649 21.237L29.1684 53.7157L33.7567 41.8517H45.7845L50.3731 53.7157L63.0235 20.8436C60.7949 18.1562 58.1074 15.8621 55.0925 14.0923L46.3092 38.2793H42.409H37.8207H33.9207L25.1046 13.9939C21.8601 15.8621 19.0087 18.3204 16.649 21.237ZM68.071 29.3978L53.8144 66.5956C63.384 61.5812 69.9716 51.5525 69.9716 40.0164C69.9716 36.2799 69.3161 32.7078 68.071 29.3978ZM47.5872 69.0208L47.4889 68.2671L39.7543 48.2097L32.0197 68.2671L31.987 68.8898C34.5432 69.6107 37.2308 69.9713 40.0166 69.9713C42.6387 69.9713 45.1619 69.6435 47.5872 69.0208ZM25.6291 66.2677L11.7329 30.0533C10.6186 33.1666 10.0287 36.5096 10.0287 40.0164C10.0287 51.2902 16.3211 61.1878 25.6291 66.2677ZM40.0166 10.0284C42.6387 10.0284 45.2273 10.3564 47.6856 11.0119L40.1149 31.9539L32.5113 10.979C34.9038 10.3564 37.4273 10.0284 40.0166 10.0284Z" fill="#FCF3E1"/>
</svg>
