<svg width="121" height="120" viewBox="0 0 121 120" fill="none" xmlns="http://www.w3.org/2000/svg">
<g clip-path="url(#clip0_375_1678)">
<path d="M99.44 39.24C94.48 39.24 89.93 40.98 86.36 43.88C82.79 40.98 78.24 39.24 73.28 39.24C68.32 39.24 63.77 40.98 60.2 43.88C56.63 40.98 52.08 39.24 47.12 39.24C42.16 39.24 37.61 40.98 34.04 43.88C30.47 40.98 25.92 39.24 20.96 39.24C9.49501 39.24 0.200012 48.535 0.200012 60C0.200012 71.465 9.49501 80.76 20.96 80.76C25.92 80.76 30.47 79.02 34.04 76.12C37.61 79.02 42.16 80.76 47.12 80.76C52.08 80.76 56.63 79.02 60.2 76.12C63.77 79.02 68.32 80.76 73.28 80.76C78.24 80.76 82.79 79.02 86.36 76.12C89.93 79.02 94.48 80.76 99.44 80.76C110.905 80.76 120.2 71.465 120.2 60C120.2 48.535 110.905 39.24 99.44 39.24ZM86.36 69.33C84.48 66.7 83.37 63.48 83.37 60C83.37 56.52 84.48 53.3 86.36 50.67C88.24 53.3 89.35 56.52 89.35 60C89.35 63.48 88.24 66.7 86.36 69.33ZM60.2 69.33C58.32 66.7 57.21 63.48 57.21 60C57.21 56.52 58.32 53.3 60.2 50.67C62.08 53.3 63.19 56.52 63.19 60C63.19 63.48 62.08 66.7 60.2 69.33ZM34.04 69.33C32.16 66.7 31.05 63.48 31.05 60C31.05 56.52 32.16 53.3 34.04 50.67C35.92 53.3 37.03 56.52 37.03 60C37.03 63.48 35.92 66.7 34.04 69.33ZM4.89001 60C4.89001 51.125 12.085 43.93 20.96 43.93C24.64 43.93 28.03 45.17 30.74 47.255C28 50.77 26.36 55.195 26.36 60C26.36 64.805 28 69.23 30.74 72.745C28.03 74.825 24.64 76.07 20.96 76.07C12.085 76.07 4.89001 68.875 4.89001 60ZM37.34 72.745C40.08 69.23 41.72 64.805 41.72 60C41.72 55.195 40.08 50.77 37.34 47.255C40.05 45.175 43.44 43.93 47.12 43.93C50.8 43.93 54.19 45.17 56.9 47.255C54.155 50.775 52.52 55.195 52.52 60C52.52 64.805 54.16 69.23 56.9 72.745C54.19 74.825 50.8 76.07 47.12 76.07C43.44 76.07 40.05 74.83 37.34 72.745ZM63.5 72.745C66.245 69.225 67.88 64.805 67.88 60C67.88 55.195 66.24 50.77 63.5 47.25C66.21 45.17 69.6 43.925 73.28 43.925C76.96 43.925 80.35 45.165 83.06 47.25C80.315 50.77 78.68 55.19 78.68 59.995C78.68 64.8 80.32 69.225 83.06 72.74C80.35 74.82 76.96 76.065 73.28 76.065C69.6 76.07 66.21 74.83 63.5 72.745ZM99.44 76.07C95.76 76.07 92.37 74.83 89.66 72.745C92.4 69.225 94.04 64.805 94.04 60C94.04 55.195 92.4 50.77 89.66 47.255C92.37 45.175 95.76 43.93 99.44 43.93C108.315 43.93 115.51 51.125 115.51 60C115.51 68.875 108.315 76.07 99.44 76.07Z" fill="black"/>
</g>
<defs>
<clipPath id="clip0_375_1678">
<rect width="120" height="120" fill="white" transform="translate(0.200012)"/>
</clipPath>
</defs>
</svg>
