<svg width="104" height="104" viewBox="0 0 104 104" fill="none" xmlns="http://www.w3.org/2000/svg">
<g clip-path="url(#clip0_375_1655)">
<path d="M52.0001 0.000732422C23.2824 0.000732422 0 23.2808 0 51.9996C0 80.718 23.2824 103.999 52.0001 103.999C80.7199 103.999 104 80.718 104 51.9996C104 23.2808 80.7201 0.000732422 52.0001 0.000732422ZM52.0001 101.398C24.7167 101.398 2.60226 79.2822 2.60226 51.9996C2.60226 24.7174 24.7167 2.60002 52.0001 2.60002C79.2834 2.60002 101.4 24.7173 101.4 51.9996C101.4 79.2821 79.2834 101.398 52.0001 101.398Z" fill="url(#paint0_linear_375_1655)"/>
<path d="M101.772 52C101.772 79.486 79.4863 101.771 52.0001 101.771C24.5136 101.771 2.23004 79.486 2.23004 52C2.23004 24.5124 24.5136 2.22888 52.0001 2.22888C79.4863 2.22888 101.772 24.5124 101.772 52Z" fill="#333333"/>
<path d="M101.4 52C101.4 79.2826 79.2833 101.399 52.0001 101.399C24.7167 101.399 2.60223 79.2826 2.60223 52C2.60223 24.7179 24.7167 2.60046 52.0001 2.60046C79.2833 2.60046 101.4 24.7179 101.4 52Z" fill="url(#paint1_radial_375_1655)"/>
<path d="M85.1188 52C85.1188 70.2903 70.291 85.1173 52.0003 85.1173C33.7092 85.1173 18.8815 70.2905 18.8815 52C18.8815 33.7089 33.7092 18.8816 52.0003 18.8816C70.2909 18.8815 85.1188 33.709 85.1188 52Z" fill="url(#paint2_linear_375_1655)"/>
<path d="M53.3267 17.9864L56.767 8.86832V17.9864H59.3799V4.92773H55.4532L51.8815 14.2776H51.9155L48.344 4.92773H44.4172V17.9864H47.0301V8.86832L50.4703 17.9864H53.3267ZM89.1851 23.842L84.7209 30.3512L91.7328 26.9026L93.6347 29.1833L82.5989 34.7245L80.369 32.0248L84.6468 25.5749L84.6215 25.5431L77.506 28.5887L75.2506 25.9071L82.6918 16.0537L84.5941 18.3357L79.9346 24.6101L87.1456 21.394L89.1851 23.842Z" fill="black"/>
<path d="M28.8723 21.3474C27.8207 20.3265 26.1979 20.0187 24.6723 20.9644C24.9644 20.209 24.8458 19.4401 24.6915 19.0136C24.0335 17.8172 23.8028 17.6659 23.2656 17.212C21.5115 15.7425 19.6664 16.9973 18.3483 18.5682L11.9756 26.1629L21.9938 34.5678L28.7136 26.5608C30.2495 24.7307 30.4866 22.9164 28.8723 21.3474ZM15.9127 25.01L19.7406 20.4483C20.1848 19.9203 21.1877 19.9416 21.8309 20.4833C22.5396 21.0778 22.5418 21.9198 22.0657 22.4879L18.2805 26.9969L15.9127 25.01ZM26.473 25.7684L22.4826 30.5239L19.9839 28.4238L24.0041 23.6316C24.459 23.0898 25.4724 22.9323 26.1559 23.5055C26.9258 24.1531 27.0019 25.138 26.473 25.7684Z" fill="#333333"/>
<path d="M53.3543 17.4819L56.7946 8.36401V17.4819H59.4076V4.42322H55.4804L51.9091 13.7728H51.943L48.3715 4.42322H44.4445V17.4819H47.0575V8.36401L50.498 17.4819H53.3543Z" fill="url(#paint3_radial_375_1655)"/>
<path d="M89.2108 22.9658L84.7484 29.4752L91.7603 26.0255L93.6603 28.3073L82.6262 33.8485L80.3962 31.1478L84.6743 24.6987L84.6492 24.666L77.5313 27.7128L75.2784 25.0299L82.7195 15.1776L84.6215 17.4587L79.9628 23.733L87.1709 20.5181L89.2108 22.9658Z" fill="url(#paint4_radial_375_1655)"/>
<path d="M28.4046 21.0904C27.3552 20.0695 25.7303 19.7615 24.207 20.7064C24.4967 19.9509 24.3783 19.1818 24.224 18.7575C23.5659 17.559 23.3374 17.4098 22.7956 16.955C21.0417 15.4845 19.1988 16.74 17.8827 18.3124L11.5076 25.9059L21.5261 34.3109L28.2458 26.3026C29.78 24.4724 30.0189 22.6593 28.4046 21.0904ZM15.4455 24.7527L19.273 20.1922C19.7153 19.6633 20.7181 19.6844 21.3634 20.2249C22.0722 20.8206 22.0744 21.6636 21.5961 22.2296L17.8132 26.7394L15.4455 24.7527ZM26.0076 25.5112L22.0171 30.2666L19.5141 28.1665L23.5364 23.3733C23.9913 22.8327 25.0026 22.675 25.686 23.2485C26.4603 23.8969 26.5365 24.8797 26.0076 25.5112Z" fill="url(#paint5_radial_375_1655)"/>
<path d="M19.9838 52.0006C19.9838 34.3179 34.3186 19.9832 52.0002 19.9832C69.6838 19.9832 84.0165 34.3178 84.0165 52.0006C84.0165 69.6825 69.6838 84.0166 52.0002 84.0166C34.3184 84.0166 19.9838 69.6824 19.9838 52.0006Z" fill="url(#paint6_radial_375_1655)"/>
<path d="M20.9043 52.0005C20.9043 34.8266 34.8262 20.9034 52.0003 20.9034C69.1744 20.9034 83.0982 34.8265 83.0982 52.0005C83.0982 69.1745 69.1741 83.0976 52.0002 83.0976C34.8263 83.0976 20.9043 69.1745 20.9043 52.0005Z" fill="url(#paint7_radial_375_1655)"/>
<path d="M20.8555 52.0005H52.0001V20.8558C34.7985 20.8558 20.8555 34.799 20.8555 52.0005Z" fill="url(#paint8_radial_375_1655)"/>
<path d="M52.0001 52.0005V83.1454C69.2015 83.1454 83.1448 69.1996 83.1448 52.0005H52.0001Z" fill="url(#paint9_radial_375_1655)"/>
<path d="M83.4027 51.447H52.5522V20.5966H51.4477V51.447H20.5973V52.5516H51.4477V83.403H52.5522V52.5516H83.4027V51.447Z" fill="url(#paint10_radial_375_1655)"/>
<path d="M52.5523 21.4704C68.9817 21.7626 82.2391 35.019 82.5331 51.4471H83.0829C82.7893 34.7143 69.2862 21.2093 52.5521 20.9172L52.5523 21.4704Z" fill="url(#paint11_linear_375_1655)"/>
<path d="M21.4141 51.443C21.7059 34.9926 34.9826 21.7171 51.4331 21.424V20.8717C34.676 21.1647 21.1559 34.6878 20.8618 51.4429L21.4141 51.443Z" fill="#C2D7E8"/>
<path d="M51.4477 82.53C35.0186 82.2383 21.7611 68.9808 21.469 52.5516H20.917C21.2109 69.2853 34.714 82.7908 51.4478 83.0827L51.4477 82.53Z" fill="url(#paint12_linear_375_1655)"/>
<path d="M82.5332 52.5516C82.2392 68.9808 68.9816 82.2383 52.5524 82.53V83.0827C69.2863 82.7908 82.7912 69.2855 83.0832 52.5516H82.5332Z" fill="#12404F"/>
<path d="M50.8576 20.8717V50.841H20.8893V51.4323H51.4477V20.8717H50.8576Z" fill="url(#paint13_linear_375_1655)"/>
<path d="M50.8069 82.7928V53.1842H21.1371V52.6003H51.3908V82.7928H50.8069Z" fill="url(#paint14_linear_375_1655)"/>
<path d="M53.1849 82.7928V53.1842H82.7934V52.6003H52.603V82.7928H53.1849Z" fill="url(#paint15_linear_375_1655)"/>
<path d="M53.1849 21.1364V50.7448H82.7934V51.3277H52.603V21.1364H53.1849Z" fill="url(#paint16_linear_375_1655)"/>
</g>
<defs>
<linearGradient id="paint0_linear_375_1655" x1="-7.61196" y1="-5.60575" x2="102.721" y2="101.012" gradientUnits="userSpaceOnUse">
<stop stop-color="#DFF4FF"/>
<stop offset="0.098" stop-color="#D6EAF5"/>
<stop offset="0.268" stop-color="#BFD0D9"/>
<stop offset="0.488" stop-color="#98A5AC"/>
<stop offset="0.747" stop-color="#646B6E"/>
<stop offset="1" stop-color="#2B2B2B"/>
</linearGradient>
<radialGradient id="paint1_radial_375_1655" cx="0" cy="0" r="1" gradientUnits="userSpaceOnUse" gradientTransform="translate(-0.648109 3.44049) scale(73.8778 73.8778)">
<stop stop-color="white"/>
<stop offset="0.306" stop-color="#A8A8A8"/>
<stop offset="0.646" stop-color="#4F4F4F"/>
<stop offset="0.885" stop-color="#161616"/>
<stop offset="1"/>
</radialGradient>
<linearGradient id="paint2_linear_375_1655" x1="89.9671" y1="88.6881" x2="19.6965" y2="20.7836" gradientUnits="userSpaceOnUse">
<stop stop-color="#DFF4FF"/>
<stop offset="0.086" stop-color="#D6EAF5"/>
<stop offset="0.233" stop-color="#BED0D9"/>
<stop offset="0.424" stop-color="#96A4AC"/>
<stop offset="0.652" stop-color="#5F686D"/>
<stop offset="0.907" stop-color="#1A1D1E"/>
<stop offset="1"/>
</linearGradient>
<radialGradient id="paint3_radial_375_1655" cx="0" cy="0" r="1" gradientUnits="userSpaceOnUse" gradientTransform="translate(-13.9163 -4.08295) scale(177.517 177.517)">
<stop stop-color="white"/>
<stop offset="0.31" stop-color="#FDFDFD"/>
<stop offset="0.451" stop-color="#F6F6F6"/>
<stop offset="0.557" stop-color="#E9E9E9"/>
<stop offset="0.646" stop-color="#D7D7D7"/>
<stop offset="0.724" stop-color="#BFBFBF"/>
<stop offset="0.794" stop-color="#A2A2A2"/>
<stop offset="0.859" stop-color="#808080"/>
<stop offset="0.92" stop-color="#575757"/>
<stop offset="0.975" stop-color="#2B2B2B"/>
<stop offset="1" stop-color="#141414"/>
</radialGradient>
<radialGradient id="paint4_radial_375_1655" cx="0" cy="0" r="1" gradientUnits="userSpaceOnUse" gradientTransform="translate(-13.9242 -4.08303) scale(177.533 177.533)">
<stop stop-color="white"/>
<stop offset="0.31" stop-color="#FDFDFD"/>
<stop offset="0.451" stop-color="#F6F6F6"/>
<stop offset="0.557" stop-color="#E9E9E9"/>
<stop offset="0.646" stop-color="#D7D7D7"/>
<stop offset="0.724" stop-color="#BFBFBF"/>
<stop offset="0.794" stop-color="#A2A2A2"/>
<stop offset="0.859" stop-color="#808080"/>
<stop offset="0.92" stop-color="#575757"/>
<stop offset="0.975" stop-color="#2B2B2B"/>
<stop offset="1" stop-color="#141414"/>
</radialGradient>
<radialGradient id="paint5_radial_375_1655" cx="0" cy="0" r="1" gradientUnits="userSpaceOnUse" gradientTransform="translate(-13.9339 -4.13511) scale(177.668 177.668)">
<stop stop-color="white"/>
<stop offset="0.31" stop-color="#FDFDFD"/>
<stop offset="0.451" stop-color="#F6F6F6"/>
<stop offset="0.557" stop-color="#E9E9E9"/>
<stop offset="0.646" stop-color="#D7D7D7"/>
<stop offset="0.724" stop-color="#BFBFBF"/>
<stop offset="0.794" stop-color="#A2A2A2"/>
<stop offset="0.859" stop-color="#808080"/>
<stop offset="0.92" stop-color="#575757"/>
<stop offset="0.975" stop-color="#2B2B2B"/>
<stop offset="1" stop-color="#141414"/>
</radialGradient>
<radialGradient id="paint6_radial_375_1655" cx="0" cy="0" r="1" gradientUnits="userSpaceOnUse" gradientTransform="translate(17.8771 20.5274) scale(47.8818 47.8818)">
<stop stop-color="#E6E6E6"/>
<stop offset="0.104" stop-color="#D6D6D6"/>
<stop offset="0.307" stop-color="#ADADAD"/>
<stop offset="0.588" stop-color="#6C6C6C"/>
<stop offset="0.933" stop-color="#121212"/>
<stop offset="1"/>
</radialGradient>
<radialGradient id="paint7_radial_375_1655" cx="0" cy="0" r="1" gradientUnits="userSpaceOnUse" gradientTransform="translate(30.9734 26.9675) scale(69.6339 69.6339)">
<stop stop-color="white"/>
<stop offset="0.344" stop-color="#FDFDFD"/>
<stop offset="0.481" stop-color="#F6F6F6"/>
<stop offset="0.582" stop-color="#EAEAEA"/>
<stop offset="0.665" stop-color="#D8D8D8"/>
<stop offset="0.737" stop-color="#C2C2C2"/>
<stop offset="0.802" stop-color="#A6A6A6"/>
<stop offset="0.86" stop-color="#848484"/>
<stop offset="0.913" stop-color="#5F5F5F"/>
<stop offset="0.949" stop-color="#404040"/>
<stop offset="0.957" stop-color="#404040"/>
<stop offset="1"/>
</radialGradient>
<radialGradient id="paint8_radial_375_1655" cx="0" cy="0" r="1" gradientUnits="userSpaceOnUse" gradientTransform="translate(10.5279 0.57173) scale(123.323)">
<stop offset="0.169" stop-color="white"/>
<stop offset="0.196" stop-color="#E0EFF7"/>
<stop offset="0.241" stop-color="#B2D9EC"/>
<stop offset="0.287" stop-color="#8BC5E2"/>
<stop offset="0.335" stop-color="#6BB5DA"/>
<stop offset="0.384" stop-color="#52A9D4"/>
<stop offset="0.436" stop-color="#41A0CF"/>
<stop offset="0.491" stop-color="#369BCD"/>
<stop offset="0.556" stop-color="#3399CC"/>
<stop offset="0.606" stop-color="#3396C8"/>
<stop offset="0.655" stop-color="#328EBC"/>
<stop offset="0.705" stop-color="#3180A8"/>
<stop offset="0.754" stop-color="#2F6D8C"/>
<stop offset="0.803" stop-color="#2D5468"/>
<stop offset="0.851" stop-color="#2A373D"/>
<stop offset="0.871" stop-color="#292929"/>
</radialGradient>
<radialGradient id="paint9_radial_375_1655" cx="0" cy="0" r="1" gradientUnits="userSpaceOnUse" gradientTransform="translate(10.5279 0.570793) scale(123.32 123.32)">
<stop offset="0.169" stop-color="white"/>
<stop offset="0.196" stop-color="#E0EFF7"/>
<stop offset="0.241" stop-color="#B2D9EC"/>
<stop offset="0.287" stop-color="#8BC5E2"/>
<stop offset="0.335" stop-color="#6BB5DA"/>
<stop offset="0.384" stop-color="#52A9D4"/>
<stop offset="0.436" stop-color="#41A0CF"/>
<stop offset="0.491" stop-color="#369BCD"/>
<stop offset="0.556" stop-color="#3399CC"/>
<stop offset="0.606" stop-color="#3396C8"/>
<stop offset="0.655" stop-color="#328EBC"/>
<stop offset="0.705" stop-color="#3180A8"/>
<stop offset="0.754" stop-color="#2F6D8C"/>
<stop offset="0.803" stop-color="#2D5468"/>
<stop offset="0.851" stop-color="#2A373D"/>
<stop offset="0.871" stop-color="#292929"/>
</radialGradient>
<radialGradient id="paint10_radial_375_1655" cx="0" cy="0" r="1" gradientUnits="userSpaceOnUse" gradientTransform="translate(18.531 21.1304) scale(46.9641 46.9641)">
<stop stop-color="#E6E6E6"/>
<stop offset="0.104" stop-color="#D6D6D6"/>
<stop offset="0.307" stop-color="#ADADAD"/>
<stop offset="0.588" stop-color="#6C6C6C"/>
<stop offset="0.933" stop-color="#121212"/>
<stop offset="1"/>
</radialGradient>
<linearGradient id="paint11_linear_375_1655" x1="45.8419" y1="9.40429" x2="91.6412" y2="53.6615" gradientUnits="userSpaceOnUse">
<stop stop-color="#F0F4FF"/>
<stop offset="0.109" stop-color="#EBEFF9"/>
<stop offset="0.247" stop-color="#DCE0EA"/>
<stop offset="0.403" stop-color="#C4C7CF"/>
<stop offset="0.57" stop-color="#A2A4AB"/>
<stop offset="0.747" stop-color="#76777C"/>
<stop offset="0.929" stop-color="#414243"/>
<stop offset="1" stop-color="#2B2B2B"/>
</linearGradient>
<linearGradient id="paint12_linear_375_1655" x1="8.66805" y1="46.77" x2="54.468" y2="91.028" gradientUnits="userSpaceOnUse">
<stop stop-color="#F0F4FF"/>
<stop offset="0.109" stop-color="#EBEFF9"/>
<stop offset="0.247" stop-color="#DCE0EA"/>
<stop offset="0.403" stop-color="#C4C7CF"/>
<stop offset="0.57" stop-color="#A2A4AB"/>
<stop offset="0.747" stop-color="#76777C"/>
<stop offset="0.929" stop-color="#414243"/>
<stop offset="1" stop-color="#2B2B2B"/>
</linearGradient>
<linearGradient id="paint13_linear_375_1655" x1="30.8249" y1="30.9883" x2="54.5739" y2="53.9377" gradientUnits="userSpaceOnUse">
<stop stop-color="#C2D7E8"/>
<stop offset="0.134" stop-color="#BACFE1"/>
<stop offset="0.343" stop-color="#A4BACD"/>
<stop offset="0.6" stop-color="#8098AC"/>
<stop offset="0.894" stop-color="#4E697F"/>
<stop offset="1" stop-color="#3A566D"/>
</linearGradient>
<linearGradient id="paint14_linear_375_1655" x1="18.931" y1="36.6119" x2="64.2699" y2="80.4243" gradientUnits="userSpaceOnUse">
<stop stop-color="#F0F4FF"/>
<stop offset="0.097" stop-color="#E8EBF6"/>
<stop offset="0.257" stop-color="#D1D4DD"/>
<stop offset="0.459" stop-color="#ABAEB5"/>
<stop offset="0.695" stop-color="#78797D"/>
<stop offset="0.958" stop-color="#363637"/>
<stop offset="1" stop-color="#2B2B2B"/>
</linearGradient>
<linearGradient id="paint15_linear_375_1655" x1="52.3485" y1="52.8639" x2="68.2522" y2="68.2321" gradientUnits="userSpaceOnUse">
<stop stop-color="#D9DEF0"/>
<stop offset="0.123" stop-color="#D4DAEC"/>
<stop offset="0.263" stop-color="#C7CFE2"/>
<stop offset="0.411" stop-color="#B0BCD1"/>
<stop offset="0.566" stop-color="#90A1B8"/>
<stop offset="0.725" stop-color="#677F99"/>
<stop offset="0.885" stop-color="#355674"/>
<stop offset="0.972" stop-color="#173D5D"/>
</linearGradient>
<linearGradient id="paint16_linear_375_1655" x1="36.0797" y1="19.9839" x2="81.3696" y2="63.7488" gradientUnits="userSpaceOnUse">
<stop stop-color="#F0F4FF"/>
<stop offset="0.109" stop-color="#EBEFF9"/>
<stop offset="0.247" stop-color="#DCE0EA"/>
<stop offset="0.403" stop-color="#C4C7CF"/>
<stop offset="0.57" stop-color="#A2A4AB"/>
<stop offset="0.747" stop-color="#76777C"/>
<stop offset="0.929" stop-color="#414243"/>
<stop offset="1" stop-color="#2B2B2B"/>
</linearGradient>
<clipPath id="clip0_375_1655">
<rect width="104" height="104" fill="white"/>
</clipPath>
</defs>
</svg>
