<svg width="24" height="35" viewBox="0 0 24 35" fill="none" xmlns="http://www.w3.org/2000/svg">
<g clip-path="url(#clip0_477_9)">
<path d="M6.61737 25.9273C7.61238 27.2173 8.51803 28.5761 9.32778 29.9939C10.0191 31.3274 10.3073 32.2316 10.8125 33.8382C11.1223 34.7259 11.4024 34.9908 12.0044 34.9908C12.6605 34.9908 12.9582 34.5401 13.1881 33.8431C13.6657 32.3258 14.0404 31.1678 14.6316 30.0737C15.7917 27.9613 17.2332 26.0842 18.6495 24.2801C19.033 23.7695 21.5121 20.7949 22.6282 18.4478C22.6282 18.4478 23.9999 15.8695 23.9999 12.2687C23.9999 8.90049 22.6471 6.56445 22.6471 6.56445L18.7523 7.62552L16.387 13.9628L15.8018 14.8367L15.6848 14.995L15.5292 15.1931L15.256 15.5097L14.8656 15.9067L12.7593 17.6523L7.49337 20.7453L6.61737 25.9273Z" fill="#34A853"/>
<path d="M1.18237 18.0143C2.46759 21.0006 4.94597 23.6257 6.62278 25.9294L15.5291 15.1973C15.5291 15.1973 14.2744 16.8666 11.9983 16.8666C9.46303 16.8666 7.41487 14.8071 7.41487 12.2102C7.41487 10.4294 8.46806 9.20605 8.46806 9.20605L2.42222 10.854L1.18237 18.0143Z" fill="#FBBC04"/>
<path d="M15.6286 0.551758C18.5866 1.52193 21.1184 3.55871 22.6498 6.56213L15.5318 15.1908C15.5318 15.1908 16.585 13.9453 16.585 12.1756C16.585 9.51824 14.3854 7.53307 12.0091 7.53307C9.762 7.53307 8.47144 9.19962 8.47144 9.19962V3.76365L15.6286 0.551758Z" fill="#4285F4"/>
<path d="M2.8139 4.36451C4.58062 2.21425 7.68937 0 11.9752 0C14.0546 0 15.6212 0.555327 15.6212 0.555327L8.46469 9.20452H3.39422L2.8139 4.36451Z" fill="#1A73E8"/>
<path d="M1.18238 18.0145C1.18238 18.0145 0 15.6591 0 12.2468C0 9.02175 1.23244 6.20268 2.81391 4.36475L8.46872 9.20552L1.18238 18.0145Z" fill="#EA4335"/>
</g>
<defs>
<clipPath id="clip0_477_9">
<rect width="24" height="35" fill="white"/>
</clipPath>
</defs>
</svg>
