<svg width="233" height="40" viewBox="0 0 233 40" fill="none" xmlns="http://www.w3.org/2000/svg">
<path fill-rule="evenodd" clip-rule="evenodd" d="M0 19.1455C0 8.57091 13.1718 0 29.4199 0C45.668 0 58.8398 8.57273 58.8398 19.1455C58.8398 29.7145 45.668 38.2873 29.4199 38.2873C13.1718 38.2873 0 29.7145 0 19.1418V19.1455ZM36.6138 18.9745C36.6192 19.2582 36.6229 19.5455 36.6229 19.8345C36.6229 27.7436 34.3475 34.3982 31.2529 36.3255L31.3076 36.3073C44.4721 35.6236 54.8624 27.8818 54.8624 18.4345C54.8624 15.2236 53.661 12.2109 51.5567 9.60364L51.5312 9.54909C51.3674 13.9127 45.1747 17.6036 36.5956 18.9491L36.6138 18.9745ZM22.2278 18.9745C13.6542 17.6291 7.4651 13.9382 7.30127 9.57454L7.28125 9.62364C5.16605 12.2309 3.96828 15.2418 3.96828 18.4545C3.96828 27.9018 14.3513 35.6436 27.5231 36.3273L27.5777 36.3382C24.4923 34.4073 22.2187 27.7473 22.2187 19.8345C22.2187 19.5436 22.2187 19.2527 22.2278 18.9618V18.9745ZM150.123 19.1436C150.123 11.0527 156.694 4.50727 164.777 4.50727C172.877 4.50727 179.43 11.0527 179.43 19.1255C179.43 27.1982 172.877 33.7545 164.777 33.7545C156.676 33.7545 150.134 27.2091 150.134 19.1236L150.123 19.1436ZM92.4737 19.1436C92.4737 11.0527 99.0341 4.50727 107.124 4.50727C115.215 4.50727 121.773 11.0527 121.773 19.1255C121.773 27.1982 115.217 33.7545 107.125 33.7545C99.0341 33.7545 92.4719 27.2091 92.4719 19.1236L92.4737 19.1436ZM82.2799 10.5982V33.1073H76.1091V10.6036H67.499V5.51273H90.89V10.6036H82.2781L82.2799 10.5982ZM196.049 10.5982V33.1073H189.879V10.6036H181.269V5.51273H204.66V10.6036H196.049V10.5982ZM202.541 33.0927L213.936 5.50182H221.618L233 33.1091H225.792L223.425 26.9091L223.42 26.9036H212.11L212.105 26.9073L209.738 33.1073H202.53L202.541 33.0927ZM25.042 19.3036C25.1513 25.4582 27.0735 30.3636 29.4345 30.3636C31.7954 30.3636 33.7195 25.4545 33.8214 19.3036H33.8305L33.8196 19.2964V19.3C32.3997 19.4273 30.9253 19.5 29.4217 19.5C27.9181 19.5 26.451 19.4273 25.0311 19.3V19.2873L25.042 19.3036ZM164.782 28.3945C169.296 28.3945 172.964 24.2491 172.964 19.1291C172.964 14.0091 169.302 9.86 164.786 9.86C160.271 9.86 156.607 14.0091 156.607 19.1273C156.607 24.2436 160.266 28.3927 164.78 28.3927L164.782 28.3945ZM107.125 28.3945C111.64 28.3945 115.302 24.2491 115.302 19.1291C115.302 14.0091 111.638 9.86 107.122 9.86C102.604 9.86 98.9413 14.0091 98.9413 19.1273C98.9413 24.2436 102.6 28.3927 107.12 28.3927L107.125 28.3945ZM213.899 22.2309V22.2345H221.667L217.808 12.1345H217.753L213.901 22.2327L213.899 22.2309ZM132.832 33.0964V22.6236L122.056 5.50909H129.264L135.95 17.1091L142.638 5.50909H149.846L139.07 22.6309V33.1036H132.808L132.832 33.0964ZM25.357 14.4655C26.6621 14.5782 28.0292 14.6382 29.4345 14.6382C30.8361 14.6382 32.2013 14.5836 33.512 14.4673C32.8566 10.2164 31.2784 7.21818 29.4345 7.21818C27.5868 7.21818 26.0086 10.2182 25.357 14.4545V14.4655ZM29.4345 2.76C32.5654 2.76 35.2376 7.50545 36.2242 14.1418L36.2297 14.1236C42.3277 13.1782 46.6055 10.9836 46.6055 8.43636C46.6055 5.01818 38.9128 2.24727 29.429 2.24727C19.9452 2.24727 12.2507 5.02182 12.2507 8.44C12.2507 10.9855 16.5175 13.1727 22.6192 14.1218L22.6247 14.1309C23.6076 7.50182 26.2835 2.74909 29.4144 2.74909L29.4345 2.76Z" fill="black"/>
</svg>
