<svg width="166" height="104" viewBox="0 0 166 104" fill="none" xmlns="http://www.w3.org/2000/svg">
<g clip-path="url(#clip0_443_500)">
<path d="M106.271 95.5832H112.411V97.0088H106.271V95.5832ZM4.15209 86.9371L3.60331 101.246V101.494C3.60331 102.705 3.95899 102.955 5.88432 103.092V103.755C4.48292 103.647 3.9313 103.619 3.16316 103.619C2.39288 103.619 1.8434 103.647 0.414307 103.755V103.092C2.33751 102.955 2.61367 102.734 2.66833 101.246L3.24551 87.7105V87.5474C3.24551 86.277 2.86002 86.0022 0.965212 85.8925V85.2018C2.03508 85.2851 2.44755 85.3129 3.21782 85.3129C4.09038 85.3208 4.96261 85.2754 5.82965 85.1769L10.9397 99.1237L16.1329 85.1769C17.3717 85.2851 17.9482 85.3129 18.7731 85.3129C19.4575 85.3129 19.899 85.2851 20.9426 85.2018V85.8925C19.0748 86.0022 18.6602 86.277 18.6602 87.5175V87.7105L18.9634 101.246C18.9932 102.734 19.2388 102.953 21.2181 103.092V103.755C19.4873 103.59 18.8263 103.533 17.7827 103.533C16.737 103.533 16.0775 103.587 14.3467 103.755V103.092C16.2145 102.983 16.627 102.678 16.627 101.385V101.249L16.3821 86.9685L11.8456 99.2618L11.5169 100.173L11.1321 101.191L10.7729 102.242L10.4712 103.15H10.0587L9.7577 102.269L9.37149 101.191L8.98742 100.117L8.65731 99.1529L4.15209 86.9371ZM24.7876 95.841C25.0631 92.6715 26.106 91.0473 27.8652 91.0473C29.6521 91.0473 30.5586 92.5904 30.7226 95.841H24.7876ZM28.3614 103.063C25.8603 103.063 24.7592 101.133 24.7344 96.8329H32.9241C32.8681 92.5882 31.1365 90.3274 27.8929 90.3274C24.5974 90.3274 22.535 93.0019 22.535 97.2473C22.535 101.492 24.5981 103.972 28.1413 103.972C30.8348 103.972 32.5947 102.29 32.9497 99.4512H31.8493C31.5199 101.794 30.3109 103.063 28.3614 103.063ZM34.5591 91.3471V90.8522C36.1245 90.7147 37.0602 90.5495 38.1861 90.2177C38.3239 91.2388 38.3785 91.6782 38.4332 92.5063V92.8104C39.0395 91.2388 40.2187 90.3281 41.6492 90.3281C43.0222 90.3281 44.0402 91.2388 44.0402 92.5633C44.0402 93.3629 43.5731 93.8856 42.8859 93.8856C42.254 93.8856 41.7599 93.499 41.7599 92.9492C41.7599 92.8944 41.7883 92.7862 41.8132 92.6715L41.8678 92.3974V92.1467C41.8678 91.7608 41.5377 91.4859 41.0429 91.4859C39.6159 91.4859 38.7094 93.222 38.7094 95.9514V101.711C38.7094 102.899 38.9827 103.119 40.6602 103.201V103.753C39.1467 103.617 38.5702 103.586 37.6083 103.586C36.6193 103.586 36.0429 103.617 34.5321 103.753V103.201C36.2069 103.119 36.5093 102.899 36.5093 101.711V92.7007C36.483 91.5144 36.3439 91.3784 34.9169 91.3492L34.5591 91.3471ZM54.5536 90.0817V94.6312H53.9473C53.4525 92.2307 52.4366 91.0736 50.7611 91.0736C48.6981 91.0736 47.4905 93.3081 47.4905 97.2495C47.4905 101.108 48.5618 103.065 50.6774 103.065C52.3812 103.065 53.3978 101.853 53.7279 99.4285H54.8539C54.4961 102.379 52.93 103.977 50.458 103.977C47.2697 103.977 45.1001 101.274 45.1001 97.2516C45.1001 93.1422 47.2974 90.3316 50.5403 90.3316C51.7224 90.3316 52.4643 90.6357 53.3453 91.4902L54.085 90.0838H54.5543L54.5536 90.0817ZM59.0659 95.841C59.3406 92.6715 60.3835 91.0473 62.1434 91.0473C63.9296 91.0473 64.8362 92.5904 64.9995 95.841H59.0659ZM62.6383 103.063C60.1372 103.063 59.0389 101.133 59.0112 96.8329H67.1996C67.1449 92.5882 65.412 90.3274 62.1718 90.3274C58.8721 90.3274 56.8104 93.0019 56.8104 97.2473C56.8104 101.492 58.8714 103.972 62.4189 103.972C65.1117 103.972 66.8709 102.29 67.2265 99.4512H66.1276C65.7982 101.794 64.5891 103.063 62.6383 103.063ZM74.81 103.23C72.8314 103.23 71.7878 101.161 71.7878 97.2217C71.7878 93.2269 72.7491 91.2687 74.7284 91.2687C76.763 91.2687 77.8073 93.363 77.8073 97.4175C77.8066 101.245 76.7893 103.23 74.81 103.23ZM79.9762 100.885V84.9718C78.6025 85.3407 77.3672 85.5593 75.8288 85.7245V86.1944C77.5596 86.1944 77.7797 86.3874 77.7797 87.8201V92.643C76.763 90.9903 75.9658 90.4926 74.4813 90.4926C71.5415 90.4926 69.4791 93.2761 69.4791 97.2452C69.4791 101.215 71.5663 103.996 74.5637 103.996C76.1298 103.996 77.2018 103.28 77.9706 101.738C78.08 102.785 78.08 102.895 78.3561 103.941C79.4814 103.582 79.9499 103.472 81.5714 103.28L81.9831 103.226V102.757C80.1416 102.703 79.9762 102.567 79.9762 100.885ZM85.2786 95.841C85.5534 92.6715 86.597 91.0473 88.3569 91.0473C90.1431 91.0473 91.0482 92.5904 91.213 95.841H85.2786ZM88.8517 103.063C86.3492 103.063 85.2524 101.133 85.2233 96.8329H93.4123C93.3569 92.5882 91.6261 90.3274 88.3846 90.3274C85.0848 90.3274 83.0246 93.0019 83.0246 97.2473C83.0246 101.492 85.0848 103.972 88.6316 103.972C91.3244 103.972 93.0829 102.29 93.4386 99.4512H92.3389C92.0116 101.794 90.8005 103.063 88.8517 103.063ZM95.7458 104.001V99.3957L96.3507 99.3694C96.8441 101.879 97.9992 103.092 99.9238 103.092C101.543 103.092 102.754 102.016 102.754 100.613C102.754 99.6763 102.232 99.0432 100.884 98.4351L99.84 97.9651L98.5763 97.3869C96.5679 96.4505 95.9368 95.6779 95.9368 94.0786C95.9368 91.9003 97.6392 90.4142 100.059 90.4142C101.131 90.4142 101.93 90.662 102.863 91.2929L103.329 90.1636H103.823V94.4361H103.19C102.941 92.23 102.036 91.1847 100.306 91.1847C98.8497 91.1847 97.7202 92.1773 97.7202 93.4726C97.7202 94.5742 98.1326 94.9345 100.634 96.0361L101.789 96.5338C103.875 97.4403 104.62 98.3247 104.62 99.9518C104.62 102.268 102.778 103.919 100.197 103.919C98.932 103.919 97.9424 103.588 96.8988 102.762L96.2364 104.001H95.7458ZM119.903 94.4902C121.359 94.4902 122.183 94.7394 122.816 95.3717C123.449 96.0083 123.807 97.1925 123.807 98.5134C123.807 101.27 122.431 102.815 119.986 102.815H118.997C117.54 102.815 117.294 102.593 117.294 101.38V94.488L119.903 94.4902ZM117.292 86.1375H119.628C121.937 86.1375 122.953 87.2697 122.953 89.8317C122.953 91.0992 122.651 92.0107 122.047 92.7249C121.442 93.4164 120.701 93.6343 119.163 93.6343H117.294V86.1368H117.292V86.1375ZM125.397 89.7762C125.397 88.3428 124.794 87.0767 123.749 86.2749C122.816 85.5863 121.746 85.2844 119.957 85.2844H112.73V85.973C114.71 86.0841 114.983 86.3041 114.983 87.7923V101.16C114.983 102.649 114.761 102.84 112.73 103.008V103.671H119.682C121.714 103.671 122.815 103.421 123.971 102.705C125.344 101.823 126.25 100.141 126.25 98.408C126.25 96.9162 125.618 95.5668 124.546 94.743C123.971 94.3022 123.365 94.0508 122.375 93.86C124.355 93.1123 125.397 91.7059 125.397 89.7762ZM130.736 95.841C131.012 92.6715 132.056 91.0473 133.816 91.0473C135.601 91.0473 136.509 92.5904 136.672 95.841H130.736ZM134.311 103.063C131.81 103.063 130.708 101.133 130.682 96.8329H138.873C138.817 92.5882 137.085 90.3274 133.842 90.3274C130.544 90.3274 128.483 93.0019 128.483 97.2473C128.483 101.492 130.544 103.972 134.088 103.972C136.781 103.972 138.54 102.29 138.898 99.4512H137.798C137.471 101.794 136.262 103.063 134.311 103.063ZM140.326 91.4567V90.9903C141.92 90.7681 142.855 90.5495 143.952 90.1629C144.091 90.7995 144.174 91.5137 144.228 92.5612C145.218 91.0715 146.343 90.4121 147.938 90.4121C149.588 90.4121 151.015 91.263 151.567 92.6153C151.843 93.2782 151.98 94.0487 151.98 95.0947V101.711C151.98 102.897 152.255 103.117 153.93 103.199V103.751C152.474 103.612 151.925 103.586 150.935 103.586C149.916 103.586 149.368 103.612 147.938 103.751V103.199C149.422 103.146 149.779 102.869 149.779 101.767V95.0128C149.779 92.6153 149.065 91.649 147.307 91.649C145.437 91.649 144.448 92.836 144.448 95.0947V101.767C144.448 102.869 144.808 103.146 146.238 103.199V103.751C144.808 103.612 144.259 103.586 143.269 103.586C142.307 103.586 141.728 103.612 140.3 103.751V103.199C141.974 103.117 142.251 102.897 142.251 101.711V92.7819C142.223 91.649 142.058 91.4859 140.685 91.4859C140.6 91.4859 140.464 91.4567 140.326 91.4567ZM154.997 103.671L162.444 91.3763H159.064C157.279 91.3763 156.837 91.7608 155.849 94.2424H155.301L155.934 90.6592H165.387L157.912 102.953H161.125C162.996 102.953 163.764 102.211 164.589 99.7005H165.166L164.453 103.671H154.997Z" fill="#091923"/>
<path d="M116.521 59.5463C120.182 53.4396 122.111 46.4462 122.101 39.3203C122.101 17.604 104.549 0 82.8989 0C61.2482 0 43.6973 17.6048 43.6973 39.3203C43.6872 46.4464 45.6174 53.4399 49.2795 59.5463L49.1368 59.6609L49.3072 59.5947C56.1686 71.0065 68.6442 78.6407 82.8989 78.6407C97.1543 78.6407 109.629 71.0065 116.489 59.5947L116.66 59.6609L116.521 59.5463ZM117.285 39.3203C117.292 45.3419 115.718 51.2592 112.722 56.4772L88.4705 36.8857L83.4967 4.84784C102.21 5.16828 117.285 20.4737 117.285 39.3203ZM48.517 39.3203C48.517 20.4744 63.591 5.16899 82.304 4.84784L77.3302 36.8857L53.079 56.4772C50.0837 51.2589 48.5104 45.3417 48.517 39.3203ZM82.9004 73.8078C70.6995 73.8078 59.9902 67.4276 53.8876 57.818L82.9004 46.5601L111.913 57.8188C105.81 67.4276 95.1026 73.8078 82.9004 73.8078Z" fill="#838383"/>
</g>
<defs>
<clipPath id="clip0_443_500">
<rect width="165" height="104" fill="white" transform="translate(0.400024)"/>
</clipPath>
</defs>
</svg>
