<svg width="105" height="104" viewBox="0 0 105 104" fill="none" xmlns="http://www.w3.org/2000/svg">
<g clip-path="url(#clip0_443_492)">
<path fill-rule="evenodd" clip-rule="evenodd" d="M52.6216 -6.10352e-05C81.2527 -6.10352e-05 104.6 23.3473 104.6 52.0213C104.6 80.6095 81.2527 104 52.6216 104C23.9905 104 0.599976 80.6095 0.599976 52.0213C0.599976 23.3473 23.9905 -6.10352e-05 52.6216 -6.10352e-05Z" fill="#2058AF"/>
<path fill-rule="evenodd" clip-rule="evenodd" d="M52.6215 6.60381C77.5882 6.60381 97.9962 27.0117 97.9962 52.0213C97.9962 76.9882 77.5882 97.3534 52.6215 97.3534C27.6546 97.3534 7.24658 76.9882 7.24658 52.0213C7.24658 27.0117 27.6546 6.60381 52.6215 6.60381ZM22.2437 27.6082L38.5189 69.8304L44.4836 54.4072H60.1198L66.0849 69.8304L82.5306 27.0968C79.6333 23.6031 76.1396 20.6208 72.2202 18.32L60.8019 49.7632H55.7317H49.7668H44.6969L33.236 18.1921C29.0181 20.6208 25.3113 23.8166 22.2437 27.6082ZM89.0922 38.2171L70.5587 86.5743C82.9992 80.0556 91.563 67.0183 91.563 52.0213C91.563 47.1639 90.7109 42.5202 89.0922 38.2171ZM62.4634 89.7271L62.3355 88.7472L52.2805 62.6726L42.2255 88.7472L42.1831 89.5567C45.5061 90.494 49 90.9628 52.6215 90.9628C56.0302 90.9628 59.3104 90.5366 62.4634 89.7271ZM33.9177 86.1481L15.8528 39.0693C14.4042 43.1166 13.6372 47.4625 13.6372 52.0213C13.6372 66.6773 21.8174 79.5442 33.9177 86.1481ZM52.6215 13.0369C56.0302 13.0369 59.3954 13.4633 62.5912 14.3155L52.7493 41.5401L42.8646 14.2727C45.9748 13.4633 49.2555 13.0369 52.6215 13.0369Z" fill="white"/>
</g>
<defs>
<clipPath id="clip0_443_492">
<rect width="104" height="104" fill="white" transform="translate(0.599976)"/>
</clipPath>
</defs>
</svg>
